<svg width="259" height="76" viewBox="0 0 259 76" fill="none" xmlns="http://www.w3.org/2000/svg">
<g clip-path="url(#clip0_3_54330)">
<path d="M20.2169 25.3054V14.9327H33.838L34.0271 25.3054C34.0273 25.7255 34.1471 26.137 34.3725 26.4916C34.5979 26.8462 34.9196 27.1292 35.3 27.3077C38.8264 28.9674 41.7998 31.608 43.8645 34.9135C45.9293 38.2191 46.9978 42.0495 46.9424 45.9465C46.8071 57.0947 38.7257 65.3222 27.5764 65.3222C24.4955 65.3222 21.5962 65.0278 18.9826 63.8C17.1747 62.9524 15.6418 62.0877 14.0305 60.8169C11.5325 58.579 9.62757 55.7574 8.48576 52.604C7.34396 49.4505 7.00082 46.0634 7.487 42.745C7.97318 39.4267 9.27354 36.2804 11.272 33.587C13.2704 30.8936 15.9047 28.7371 18.9397 27.3099C19.321 27.1315 19.6436 26.8483 19.8698 26.4933C20.096 26.1383 20.2164 25.7263 20.2169 25.3054Z" fill="#D9F1FC"/>
<path d="M15.1252 34.143C15.1789 34.0851 15.2443 34.0393 15.3171 34.0087C15.3899 33.9781 15.4684 33.9635 15.5473 33.9657C18.3661 34.0377 18.4477 35.2902 21.4351 35.2902C24.5063 35.2902 24.5063 33.9625 27.5775 33.9625C30.6487 33.9625 30.6476 35.2902 33.7188 35.2902C36.7019 35.2902 36.7868 34.0377 39.6055 33.9657C39.7292 33.9626 39.8504 34.0004 39.9504 34.0731L40.0148 34.1451C42.7981 37.1723 43.9626 41.2006 43.9626 45.6393C43.9626 55.0215 36.9587 61.9158 27.5764 61.9158C23.8414 61.9158 20.5113 61.2906 17.7076 59.2485C16.613 58.4504 15.4936 57.7135 14.6192 56.6833C12.0132 53.6167 10.5857 49.7216 10.593 45.6973C10.6057 41.4153 12.2241 37.2938 15.1284 34.1473L15.1252 34.143Z" fill="#89EFB7"/>
<path d="M14.5676 56.6199C16.0255 58.3531 17.8152 59.7773 19.8316 60.8086C21.8479 61.84 24.0502 62.4576 26.3088 62.6253C28.5674 62.793 30.8367 62.5073 32.9833 61.785C35.1298 61.0627 37.1102 59.9185 38.808 58.4195C40.5059 56.9206 41.8867 55.0972 42.8695 53.0568C43.8522 51.0163 44.417 48.7999 44.5305 46.5379C44.6441 44.2759 44.3041 42.0141 43.5306 39.8855C42.7571 37.7568 41.5658 35.8044 40.0266 34.143C40.0012 34.117 39.9739 34.0929 39.945 34.071C42.3684 37.5022 43.4424 41.7062 42.9616 45.8794C42.4808 50.0526 40.4789 53.9022 37.3387 56.6925C34.1984 59.4827 30.14 61.0179 25.9393 61.0045C21.7385 60.9911 17.69 59.4301 14.5676 56.6199Z" fill="#42E8B4"/>
<path d="M20.1063 15.9801H32.7219L35.0455 15.6084C36.4215 15.6084 37.2337 14.8672 37.2337 13.49C37.2337 12.1129 36.4215 11.26 35.0465 11.26L32.7219 11H20.1063C19.4459 11 18.8126 11.2623 18.3456 11.7293C17.8786 12.1963 17.6163 12.8296 17.6163 13.49C17.6163 14.1504 17.8786 14.7838 18.3456 15.2508C18.8126 15.7177 19.4459 15.9801 20.1063 15.9801Z" fill="#DFF8FF"/>
<path d="M13.9081 60.7116C16.3373 62.4666 19.1246 63.6626 22.0703 64.2141C25.016 64.7655 28.0471 64.6588 30.9467 63.9015C33.8463 63.1442 36.5425 61.755 38.8423 59.8336C41.1421 57.9121 42.9886 55.5058 44.2494 52.7871C45.1544 50.8238 45.6378 48.6925 45.6684 46.5309C45.6684 46.5191 45.6684 46.5083 45.6684 46.4976C45.716 42.5991 44.6406 38.7693 42.5706 35.4654C40.5007 32.1615 37.5236 29.5231 33.9949 27.8652C33.6138 27.6865 33.2917 27.4027 33.0662 27.0473C32.8407 26.6919 32.7213 26.2795 32.7219 25.8586V15.9758L33.8563 15.4129L34.9359 15.9758V25.3011C34.9358 25.7213 35.0555 26.1329 35.281 26.4875C35.5065 26.8421 35.8283 27.1252 36.2089 27.3034C37.889 28.097 39.4522 29.1173 40.8549 30.3359C53.0612 40.8407 48.9427 61.9652 31.4329 65.6369H31.4447C30.1702 65.8817 28.8753 66.0047 27.5775 66.0043C22.5207 66.0109 17.6446 64.1243 13.9092 60.7159L13.9081 60.7116Z" fill="#DFF8FF"/>
<path d="M32.7219 11V15.9801H35.0455C35.7059 15.9801 36.3392 15.7177 36.8062 15.2508C37.2732 14.7838 37.5355 14.1504 37.5355 13.49C37.5355 12.8296 37.2732 12.1963 36.8062 11.7293C36.3392 11.2623 35.7059 11 35.0455 11H32.7219Z" fill="#B6E9FF"/>
<path d="M15.5849 42.8259C15.7999 42.8181 16.0034 42.7273 16.1527 42.5725C16.302 42.4178 16.3854 42.2111 16.3854 41.996C16.3854 41.781 16.302 41.5743 16.1527 41.4195C16.0034 41.2647 15.7999 41.1739 15.5849 41.1662C15.37 41.1739 15.1665 41.2647 15.0172 41.4195C14.8679 41.5743 14.7844 41.781 14.7844 41.996C14.7844 42.2111 14.8679 42.4178 15.0172 42.5725C15.1665 42.7273 15.37 42.8181 15.5849 42.8259Z" fill="#42E8B4"/>
<path d="M38.3465 38.4892C38.458 38.4933 38.5692 38.4748 38.6734 38.4349C38.7775 38.395 38.8726 38.3345 38.9529 38.257C39.0332 38.1796 39.097 38.0867 39.1407 37.9841C39.1843 37.8814 39.2068 37.771 39.2068 37.6594C39.2068 37.5479 39.1843 37.4374 39.1407 37.3348C39.097 37.2321 39.0332 37.1392 38.9529 37.0618C38.8726 36.9843 38.7775 36.9239 38.6734 36.884C38.5692 36.8441 38.458 36.8256 38.3465 36.8296C38.1316 36.8373 37.9281 36.9281 37.7788 37.0829C37.6295 37.2377 37.546 37.4444 37.546 37.6594C37.546 37.8745 37.6295 38.0811 37.7788 38.2359C37.9281 38.3907 38.1316 38.4815 38.3465 38.4892Z" fill="#42E8B4"/>
<path d="M39.2091 41.4982C39.3206 41.5022 39.4318 41.4837 39.536 41.4438C39.6401 41.4039 39.7352 41.3434 39.8155 41.2659C39.8958 41.1885 39.9597 41.0957 40.0033 40.993C40.0469 40.8903 40.0694 40.7799 40.0694 40.6683C40.0694 40.5568 40.0469 40.4463 40.0033 40.3437C39.9597 40.241 39.8958 40.1482 39.8155 40.0707C39.7352 39.9932 39.6401 39.9328 39.536 39.8929C39.4318 39.853 39.3206 39.8345 39.2091 39.8385C38.9942 39.8462 38.7907 39.937 38.6414 40.0918C38.4921 40.2466 38.4086 40.4533 38.4086 40.6683C38.4086 40.8834 38.4921 41.0901 38.6414 41.2448C38.7907 41.3996 38.9942 41.4904 39.2091 41.4982Z" fill="#42E8B4"/>
<path d="M35.9693 40.6269C36.0808 40.631 36.1919 40.6125 36.2961 40.5726C36.4003 40.5327 36.4954 40.4722 36.5757 40.3947C36.656 40.3173 36.7198 40.2244 36.7634 40.1218C36.8071 40.0191 36.8295 39.9087 36.8295 39.7971C36.8295 39.6855 36.8071 39.5751 36.7634 39.4725C36.7198 39.3698 36.656 39.2769 36.5757 39.1995C36.4954 39.122 36.4003 39.0615 36.2961 39.0217C36.1919 38.9818 36.0808 38.9633 35.9693 38.9673C35.8578 38.9633 35.7467 38.9818 35.6425 39.0217C35.5383 39.0615 35.4432 39.122 35.3629 39.1995C35.2826 39.2769 35.2188 39.3698 35.1752 39.4725C35.1315 39.5751 35.1091 39.6855 35.1091 39.7971C35.1091 39.9087 35.1315 40.0191 35.1752 40.1218C35.2188 40.2244 35.2826 40.3173 35.3629 40.3947C35.4432 40.4722 35.5383 40.5327 35.6425 40.5726C35.7467 40.6125 35.8578 40.631 35.9693 40.6269Z" fill="#42E8B4"/>
<path d="M16.9878 39.8181C17.2081 39.8181 17.4193 39.7306 17.575 39.5748C17.7307 39.4191 17.8182 39.2079 17.8182 38.9877C17.8182 38.7675 17.7307 38.5563 17.575 38.4005C17.4193 38.2448 17.2081 38.1573 16.9878 38.1573C16.7676 38.1573 16.5564 38.2448 16.4007 38.4005C16.245 38.5563 16.1575 38.7675 16.1575 38.9877C16.1575 39.2079 16.245 39.4191 16.4007 39.5748C16.5564 39.7306 16.7676 39.8181 16.9878 39.8181Z" fill="#42E8B4"/>
<path d="M34.0497 58.1034C34.1612 58.1075 34.2723 58.089 34.3765 58.0491C34.4807 58.0092 34.5758 57.9487 34.6561 57.8712C34.7363 57.7938 34.8002 57.7009 34.8438 57.5983C34.8874 57.4956 34.9099 57.3852 34.9099 57.2736C34.9099 57.162 34.8874 57.0516 34.8438 56.949C34.8002 56.8463 34.7363 56.7534 34.6561 56.676C34.5758 56.5985 34.4807 56.538 34.3765 56.4982C34.2723 56.4583 34.1612 56.4398 34.0497 56.4438C33.9382 56.4398 33.827 56.4583 33.7229 56.4982C33.6187 56.538 33.5236 56.5985 33.4433 56.676C33.363 56.7534 33.2992 56.8463 33.2555 56.949C33.2119 57.0516 33.1895 57.162 33.1895 57.2736C33.1895 57.3852 33.2119 57.4956 33.2555 57.5983C33.2992 57.7009 33.363 57.7938 33.4433 57.8712C33.5236 57.9487 33.6187 58.0092 33.7229 58.0491C33.827 58.089 33.9382 58.1075 34.0497 58.1034Z" fill="#42E8B4"/>
<path d="M36.5891 55.9689C36.804 55.9612 37.0075 55.8704 37.1568 55.7156C37.3062 55.5608 37.3896 55.3542 37.3896 55.1391C37.3896 54.924 37.3062 54.7174 37.1568 54.5626C37.0075 54.4078 36.804 54.317 36.5891 54.3093C36.3742 54.317 36.1706 54.4078 36.0213 54.5626C35.872 54.7174 35.7886 54.924 35.7886 55.1391C35.7886 55.3542 35.872 55.5608 36.0213 55.7156C36.1706 55.8704 36.3742 55.9612 36.5891 55.9689Z" fill="#42E8B4"/>
<path d="M17.6163 56.5222C18.8384 56.5222 19.8292 55.5314 19.8292 54.3093C19.8292 53.0871 18.8384 52.0964 17.6163 52.0964C16.3941 52.0964 15.4034 53.0871 15.4034 54.3093C15.4034 55.5314 16.3941 56.5222 17.6163 56.5222Z" fill="#42E8B4"/>
<path d="M29.4477 25.8629C30.3643 25.8629 31.1074 25.1198 31.1074 24.2032C31.1074 23.2866 30.3643 22.5435 29.4477 22.5435C28.5311 22.5435 27.788 23.2866 27.788 24.2032C27.788 25.1198 28.5311 25.8629 29.4477 25.8629Z" fill="#42E8B4"/>
<path d="M22.9841 42.4284C23.9007 42.4284 24.6438 41.6853 24.6438 40.7687C24.6438 39.8521 23.9007 39.1091 22.9841 39.1091C22.0675 39.1091 21.3245 39.8521 21.3245 40.7687C21.3245 41.6853 22.0675 42.4284 22.9841 42.4284Z" fill="#42E8B4"/>
<path d="M38.6989 51.613C39.6155 51.613 40.3585 50.8699 40.3585 49.9533C40.3585 49.0367 39.6155 48.2936 38.6989 48.2936C37.7822 48.2936 37.0392 49.0367 37.0392 49.9533C37.0392 50.8699 37.7822 51.613 38.6989 51.613Z" fill="#42E8B4"/>
<path d="M37.1907 43.9151H29.7066V36.4375C29.713 36.1527 29.6624 35.8694 29.5578 35.6044C29.4532 35.3394 29.2967 35.098 29.0976 34.8943C28.8984 34.6906 28.6605 34.5287 28.3979 34.4182C28.1353 34.3077 27.8533 34.2508 27.5684 34.2508C27.2835 34.2508 27.0014 34.3077 26.7388 34.4182C26.4762 34.5287 26.2384 34.6906 26.0392 34.8943C25.84 35.098 25.6835 35.3394 25.5789 35.6044C25.4743 35.8694 25.4237 36.1527 25.4301 36.4375V43.9194H17.9439C17.3741 43.9186 16.8273 44.1441 16.4238 44.5464C16.0203 44.9487 15.7931 45.4948 15.7922 46.0646C15.7914 46.6344 16.0169 47.1812 16.4192 47.5848C16.8215 47.9883 17.3677 48.2154 17.9375 48.2163H25.4301V55.6875C25.4237 55.9723 25.4743 56.2556 25.5789 56.5206C25.6835 56.7856 25.84 57.027 26.0392 57.2307C26.2384 57.4344 26.4762 57.5963 26.7388 57.7068C27.0014 57.8173 27.2835 57.8742 27.5684 57.8742C27.8533 57.8742 28.1353 57.8173 28.3979 57.7068C28.6605 57.5963 28.8984 57.4344 29.0976 57.2307C29.2967 57.027 29.4532 56.7856 29.5578 56.5206C29.6624 56.2556 29.713 55.9723 29.7066 55.6875V48.2174H37.1907C37.7605 48.2174 38.3069 47.991 38.7098 47.5881C39.1128 47.1852 39.3391 46.6387 39.3391 46.0689C39.3391 45.4991 39.1128 44.9527 38.7098 44.5498C38.3069 44.1469 37.7605 43.9205 37.1907 43.9205V43.9151Z" fill="#3DD8AF"/>
</g>
<path d="M85.4236 20.3831C89.1781 20.3831 92.4591 21.1272 95.2665 22.6155C98.0739 24.1037 100.239 26.2008 101.761 28.9068C103.317 31.5789 104.095 34.6738 104.095 38.1915C104.095 41.6754 103.317 44.7704 101.761 47.4763C100.239 50.1822 98.057 52.2793 95.2158 53.7676C92.4083 55.2559 89.1443 56 85.4236 56H72.08V20.3831H85.4236ZM84.8655 48.491C88.1465 48.491 90.7002 47.5947 92.5267 45.802C94.3532 44.0093 95.2665 41.4725 95.2665 38.1915C95.2665 34.9106 94.3532 32.3569 92.5267 30.5304C90.7002 28.7038 88.1465 27.7906 84.8655 27.7906H80.7559V48.491H84.8655ZM128.223 56L120.968 45.0917L114.575 56H104.732L116.148 37.8871L104.478 20.3831H114.575L121.729 31.1392L128.02 20.3831H137.863L126.549 38.3437L138.319 56H128.223ZM154.796 51.3323H166.72V56H149.013V20.7382H154.796V51.3323ZM190.278 48.7954H175.514L172.977 56H166.94L179.573 20.6875H186.27L198.903 56H192.815L190.278 48.7954ZM188.655 44.077L182.921 27.6891L177.138 44.077H188.655ZM220.734 37.8871C222.628 38.2254 224.234 39.2232 225.553 40.8806C226.873 42.538 227.532 44.4152 227.532 46.5123C227.532 48.305 227.059 49.9285 226.112 51.383C225.198 52.8036 223.862 53.9367 222.103 54.7823C220.345 55.5941 218.298 56 215.964 56H201.86V20.7382H215.305C217.706 20.7382 219.77 21.1441 221.495 21.9559C223.22 22.7677 224.522 23.867 225.401 25.2538C226.281 26.6067 226.72 28.1288 226.72 29.82C226.72 31.8495 226.179 33.5407 225.097 34.8937C224.014 36.2466 222.56 37.2445 220.734 37.8871ZM207.644 35.5532H214.797C216.692 35.5532 218.163 35.1304 219.211 34.2848C220.294 33.4054 220.835 32.1539 220.835 30.5304C220.835 28.9406 220.294 27.706 219.211 26.8266C218.163 25.9133 216.692 25.4567 214.797 25.4567H207.644V35.5532ZM215.457 51.2815C217.419 51.2815 218.958 50.808 220.074 49.8609C221.19 48.9138 221.748 47.5947 221.748 45.9035C221.748 44.1784 221.156 42.8085 219.972 41.7938C218.789 40.7791 217.216 40.2717 215.254 40.2717H207.644V51.2815H215.457ZM242.899 56.3552C240.532 56.3552 238.401 55.9493 236.507 55.1375C234.612 54.2919 233.124 53.108 232.042 51.5859C230.959 50.0638 230.418 48.2881 230.418 46.2586H236.608C236.743 47.7807 237.335 49.0322 238.384 50.0131C239.466 50.994 240.971 51.4845 242.899 51.4845C244.895 51.4845 246.451 51.0109 247.567 50.0638C248.683 49.0829 249.241 47.8314 249.241 46.3094C249.241 45.1255 248.886 44.1615 248.176 43.4174C247.499 42.6733 246.637 42.0982 245.588 41.6923C244.574 41.2865 243.153 40.8467 241.327 40.3732C239.026 39.7644 237.149 39.1555 235.695 38.5467C234.274 37.904 233.057 36.9231 232.042 35.604C231.027 34.2848 230.52 32.526 230.52 30.3274C230.52 28.298 231.027 26.5222 232.042 25.0001C233.057 23.478 234.477 22.3111 236.304 21.4993C238.13 20.6875 240.244 20.2816 242.646 20.2816C246.062 20.2816 248.852 21.1441 251.017 22.8692C253.216 24.5604 254.433 26.8942 254.67 29.8708H248.277C248.176 28.5855 247.567 27.4862 246.451 26.5729C245.335 25.6597 243.863 25.203 242.037 25.203C240.379 25.203 239.026 25.6258 237.978 26.4714C236.929 27.317 236.405 28.5347 236.405 30.1245C236.405 31.2068 236.726 32.1032 237.369 32.8135C238.046 33.49 238.891 34.0312 239.906 34.4371C240.921 34.8429 242.307 35.2827 244.066 35.7562C246.4 36.3989 248.294 37.0415 249.749 37.6842C251.237 38.3268 252.489 39.3247 253.503 40.6776C254.552 41.9968 255.076 43.7725 255.076 46.0049C255.076 47.7976 254.586 49.4888 253.605 51.0786C252.658 52.6683 251.254 53.9536 249.394 54.9345C247.567 55.8816 245.402 56.3552 242.899 56.3552Z" fill="#212121"/>
<defs>
<clipPath id="clip0_3_54330">
<rect width="55" height="55" fill="white" transform="translate(0.0656738 11)"/>
</clipPath>
</defs>
</svg>
