<svg width="170" height="50" viewBox="0 0 170 50" fill="none" xmlns="http://www.w3.org/2000/svg">
<g clip-path="url(#clip0_3_54327)">
<path d="M13.3551 14.7828V7.90834H22.3824L22.5077 14.7828C22.5079 15.0612 22.5873 15.3339 22.7367 15.5689C22.8861 15.8039 23.0993 15.9915 23.3514 16.1098C25.6884 17.2098 27.6591 18.9598 29.0274 21.1505C30.3958 23.3413 31.104 25.8799 31.0673 28.4626C30.9776 35.851 25.6217 41.3037 18.2326 41.3037C16.1908 41.3037 14.2692 41.1086 12.5371 40.2949C11.3389 39.7332 10.323 39.1601 9.2551 38.3179C7.59957 36.8347 6.33708 34.9647 5.58035 32.8748C4.82363 30.7849 4.59622 28.5401 4.91843 26.3408C5.24065 24.1416 6.10245 22.0564 7.4269 20.2714C8.75136 18.4864 10.4972 17.0571 12.5086 16.1112C12.7613 15.9931 12.9751 15.8053 13.125 15.5701C13.275 15.3348 13.3548 15.0617 13.3551 14.7828Z" fill="#D9F1FC"/>
<path d="M9.98059 20.6398C10.0162 20.6015 10.0595 20.5711 10.1078 20.5509C10.156 20.5306 10.2081 20.5209 10.2604 20.5224C12.1285 20.5701 12.1826 21.4002 14.1625 21.4002C16.1979 21.4002 16.1979 20.5202 18.2333 20.5202C20.2687 20.5202 20.268 21.4002 22.3034 21.4002C24.2805 21.4002 24.3367 20.5701 26.2048 20.5224C26.2868 20.5203 26.3671 20.5453 26.4334 20.5936L26.4761 20.6413C28.3207 22.6475 29.0924 25.3172 29.0924 28.2589C29.0924 34.477 24.4506 39.0462 18.2326 39.0462C15.7572 39.0462 13.5502 38.6318 11.6921 37.2784C10.9666 36.7495 10.2248 36.2611 9.64527 35.5783C7.91817 33.546 6.97211 30.9645 6.97695 28.2974C6.98535 25.4595 8.05793 22.728 9.98273 20.6427L9.98059 20.6398Z" fill="#EFD377"/>
<path d="M9.61108 35.5363C10.5773 36.685 11.7634 37.6289 13.0997 38.3124C14.4361 38.9959 15.8956 39.4053 17.3925 39.5164C18.8894 39.6275 20.3933 39.4382 21.816 38.9595C23.2386 38.4808 24.5511 37.7224 25.6763 36.729C26.8015 35.7356 27.7167 34.5272 28.368 33.1749C29.0193 31.8226 29.3936 30.3536 29.4689 28.8545C29.5441 27.3554 29.3188 25.8564 28.8062 24.4457C28.2935 23.0349 27.504 21.7409 26.4839 20.6398C26.4671 20.6226 26.449 20.6067 26.4298 20.5921C28.0359 22.8662 28.7477 25.6524 28.429 28.4181C28.1104 31.1839 26.7837 33.7352 24.7025 35.5844C22.6213 37.4337 19.9316 38.4511 17.1476 38.4422C14.3636 38.4333 11.6804 37.3988 9.61108 35.5363Z" fill="#E8CA31"/>
<path d="M13.2819 8.60248H21.6428L23.1827 8.35615C24.0947 8.35615 24.6329 7.86492 24.6329 6.95222C24.6329 6.03952 24.0947 5.47424 23.1834 5.47424L21.6428 5.30196H13.2819C12.8442 5.30196 12.4244 5.47582 12.1149 5.78531C11.8055 6.09479 11.6316 6.51454 11.6316 6.95222C11.6316 7.38989 11.8055 7.80964 12.1149 8.11913C12.4244 8.42861 12.8442 8.60248 13.2819 8.60248Z" fill="#DFF8FF"/>
<path d="M9.17395 38.2481C10.7839 39.4112 12.6312 40.2038 14.5834 40.5693C16.5356 40.9348 18.5445 40.8641 20.4662 40.3622C22.3879 39.8603 24.1748 38.9396 25.699 37.6662C27.2232 36.3927 28.4469 34.798 29.2825 32.9962C29.8823 31.695 30.2027 30.2825 30.223 28.8499C30.223 28.842 30.223 28.8349 30.223 28.8278C30.2545 26.2441 29.5418 23.7059 28.1699 21.5163C26.7981 19.3266 24.825 17.578 22.4864 16.4793C22.2339 16.3608 22.0203 16.1728 21.8709 15.9372C21.7215 15.7017 21.6423 15.4284 21.6427 15.1494V8.59963L22.3946 8.22658L23.11 8.59963V14.7799C23.11 15.0584 23.1893 15.3312 23.3387 15.5662C23.4882 15.8012 23.7015 15.9888 23.9537 16.107C25.0672 16.6329 26.1032 17.3091 27.0328 18.1168C35.1225 25.0787 32.3929 39.0789 20.7884 41.5123H20.7963C19.9516 41.6745 19.0934 41.756 18.2333 41.7558C14.8819 41.7602 11.6503 40.5098 9.17466 38.2509L9.17395 38.2481Z" fill="#DFF8FF"/>
<path d="M21.6428 5.30196V8.60248H23.1827C23.6204 8.60248 24.0402 8.42861 24.3496 8.11913C24.6591 7.80964 24.833 7.38989 24.833 6.95222C24.833 6.51454 24.6591 6.09479 24.3496 5.78531C24.0402 5.47582 23.6204 5.30196 23.1827 5.30196H21.6428Z" fill="#B6E9FF"/>
<path d="M10.2853 26.3944C10.4277 26.3893 10.5626 26.3291 10.6616 26.2265C10.7605 26.1239 10.8158 25.987 10.8158 25.8444C10.8158 25.7019 10.7605 25.5649 10.6616 25.4624C10.5626 25.3598 10.4277 25.2996 10.2853 25.2945C10.1429 25.2996 10.008 25.3598 9.90901 25.4624C9.81006 25.5649 9.75476 25.7019 9.75476 25.8444C9.75476 25.987 9.81006 26.1239 9.90901 26.2265C10.008 26.3291 10.1429 26.3893 10.2853 26.3944Z" fill="#C4AE62"/>
<path d="M25.3705 23.5203C25.4444 23.523 25.5181 23.5107 25.5871 23.4843C25.6561 23.4579 25.7192 23.4178 25.7724 23.3664C25.8256 23.3151 25.8679 23.2536 25.8968 23.1855C25.9257 23.1175 25.9406 23.0443 25.9406 22.9704C25.9406 22.8964 25.9257 22.8233 25.8968 22.7552C25.8679 22.6872 25.8256 22.6256 25.7724 22.5743C25.7192 22.523 25.6561 22.4829 25.5871 22.4564C25.5181 22.43 25.4444 22.4177 25.3705 22.4204C25.2281 22.4255 25.0932 22.4857 24.9942 22.5883C24.8953 22.6909 24.84 22.8278 24.84 22.9704C24.84 23.1129 24.8953 23.2499 24.9942 23.3524C25.0932 23.455 25.2281 23.5152 25.3705 23.5203Z" fill="#C4AE62"/>
<path d="M25.9422 25.5145C26.016 25.5171 26.0897 25.5049 26.1588 25.4784C26.2278 25.452 26.2908 25.4119 26.344 25.3606C26.3972 25.3092 26.4396 25.2477 26.4685 25.1797C26.4974 25.1116 26.5123 25.0384 26.5123 24.9645C26.5123 24.8906 26.4974 24.8174 26.4685 24.7493C26.4396 24.6813 26.3972 24.6198 26.344 24.5684C26.2908 24.5171 26.2278 24.477 26.1588 24.4506C26.0897 24.4241 26.016 24.4119 25.9422 24.4145C25.7997 24.4197 25.6648 24.4798 25.5659 24.5824C25.4669 24.685 25.4116 24.822 25.4116 24.9645C25.4116 25.107 25.4669 25.244 25.5659 25.3466C25.6648 25.4492 25.7997 25.5093 25.9422 25.5145Z" fill="#C4AE62"/>
<path d="M23.795 24.9371C23.8689 24.9397 23.9425 24.9275 24.0116 24.901C24.0806 24.8746 24.1436 24.8345 24.1968 24.7832C24.25 24.7319 24.2924 24.6703 24.3213 24.6023C24.3502 24.5342 24.3651 24.4611 24.3651 24.3871C24.3651 24.3132 24.3502 24.24 24.3213 24.172C24.2924 24.1039 24.25 24.0424 24.1968 23.991C24.1436 23.9397 24.0806 23.8996 24.0116 23.8732C23.9425 23.8467 23.8689 23.8345 23.795 23.8371C23.7211 23.8345 23.6474 23.8467 23.5784 23.8732C23.5093 23.8996 23.4463 23.9397 23.3931 23.991C23.3399 24.0424 23.2976 24.1039 23.2687 24.172C23.2398 24.24 23.2249 24.3132 23.2249 24.3871C23.2249 24.4611 23.2398 24.5342 23.2687 24.6023C23.2976 24.6703 23.3399 24.7319 23.3931 24.7832C23.4463 24.8345 23.5093 24.8746 23.5784 24.901C23.6474 24.9275 23.7211 24.9397 23.795 24.9371Z" fill="#C4AE62"/>
<path d="M11.2151 24.401C11.3611 24.401 11.5011 24.343 11.6043 24.2398C11.7075 24.1366 11.7654 23.9966 11.7654 23.8507C11.7654 23.7047 11.7075 23.5647 11.6043 23.4615C11.5011 23.3583 11.3611 23.3003 11.2151 23.3003C11.0692 23.3003 10.9292 23.3583 10.826 23.4615C10.7228 23.5647 10.6648 23.7047 10.6648 23.8507C10.6648 23.9966 10.7228 24.1366 10.826 24.2398C10.9292 24.343 11.0692 24.401 11.2151 24.401Z" fill="#C4AE62"/>
<path d="M22.5228 36.5195C22.5966 36.5222 22.6703 36.5099 22.7394 36.4835C22.8084 36.457 22.8714 36.4169 22.9246 36.3656C22.9778 36.3143 23.0202 36.2528 23.0491 36.1847C23.078 36.1167 23.0929 36.0435 23.0929 35.9695C23.0929 35.8956 23.078 35.8224 23.0491 35.7544C23.0202 35.6863 22.9778 35.6248 22.9246 35.5735C22.8714 35.5221 22.8084 35.4821 22.7394 35.4556C22.6703 35.4292 22.5966 35.4169 22.5228 35.4196C22.4489 35.4169 22.3752 35.4292 22.3062 35.4556C22.2371 35.4821 22.1741 35.5221 22.1209 35.5735C22.0677 35.6248 22.0253 35.6863 21.9964 35.7544C21.9675 35.8224 21.9526 35.8956 21.9526 35.9695C21.9526 36.0435 21.9675 36.1167 21.9964 36.1847C22.0253 36.2528 22.0677 36.3143 22.1209 36.3656C22.1741 36.4169 22.2371 36.457 22.3062 36.4835C22.3752 36.5099 22.4489 36.5222 22.5228 36.5195Z" fill="#C4AE62"/>
<path d="M24.2057 35.1049C24.3481 35.0998 24.483 35.0396 24.582 34.937C24.6809 34.8344 24.7362 34.6975 24.7362 34.5549C24.7362 34.4124 24.6809 34.2754 24.582 34.1729C24.483 34.0703 24.3481 34.0101 24.2057 34.005C24.0633 34.0101 23.9284 34.0703 23.8294 34.1729C23.7305 34.2754 23.6752 34.4124 23.6752 34.5549C23.6752 34.6975 23.7305 34.8344 23.8294 34.937C23.9284 35.0396 24.0633 35.0998 24.2057 35.1049Z" fill="#C4AE62"/>
<path d="M11.6315 35.4716C12.4415 35.4716 13.0981 34.8149 13.0981 34.005C13.0981 33.195 12.4415 32.5384 11.6315 32.5384C10.8215 32.5384 10.1649 33.195 10.1649 34.005C10.1649 34.8149 10.8215 35.4716 11.6315 35.4716Z" fill="#E8CA31"/>
<path d="M19.4729 15.1523C20.0803 15.1523 20.5728 14.6598 20.5728 14.0523C20.5728 13.4449 20.0803 12.9524 19.4729 12.9524C18.8654 12.9524 18.3729 13.4449 18.3729 14.0523C18.3729 14.6598 18.8654 15.1523 19.4729 15.1523Z" fill="#E8CA31"/>
<path d="M15.189 26.131C15.7965 26.131 16.289 25.6385 16.289 25.031C16.289 24.4236 15.7965 23.9311 15.189 23.9311C14.5816 23.9311 14.0891 24.4236 14.0891 25.031C14.0891 25.6385 14.5816 26.131 15.189 26.131Z" fill="#E8CA31"/>
<path d="M25.604 32.218C26.2114 32.218 26.7039 31.7255 26.7039 31.1181C26.7039 30.5106 26.2114 30.0181 25.604 30.0181C24.9965 30.0181 24.504 30.5106 24.504 31.1181C24.504 31.7255 24.9965 32.218 25.604 32.218Z" fill="#E8CA31"/>
<path d="M24.6044 27.1163H19.6444V22.1605C19.6486 21.9718 19.6151 21.784 19.5458 21.6084C19.4765 21.4328 19.3728 21.2728 19.2408 21.1378C19.1088 21.0028 18.9511 20.8955 18.7771 20.8223C18.603 20.749 18.4161 20.7113 18.2273 20.7113C18.0385 20.7113 17.8516 20.749 17.6775 20.8223C17.5035 20.8955 17.3458 21.0028 17.2138 21.1378C17.0818 21.2728 16.9781 21.4328 16.9088 21.6084C16.8395 21.784 16.806 21.9718 16.8102 22.1605V27.1191H11.8487C11.4711 27.1186 11.1087 27.268 10.8413 27.5347C10.5739 27.8013 10.4233 28.1632 10.4227 28.5409C10.4222 28.9185 10.5716 29.2809 10.8383 29.5483C11.1049 29.8158 11.4668 29.9663 11.8445 29.9669H16.8102V34.9184C16.806 35.1071 16.8395 35.2949 16.9088 35.4705C16.9781 35.6461 17.0818 35.8061 17.2138 35.9411C17.3458 36.0761 17.5035 36.1834 17.6775 36.2566C17.8516 36.3299 18.0385 36.3676 18.2273 36.3676C18.4161 36.3676 18.603 36.3299 18.7771 36.2566C18.9511 36.1834 19.1088 36.0761 19.2408 35.9411C19.3728 35.8061 19.4765 35.6461 19.5458 35.4705C19.6151 35.2949 19.6486 35.1071 19.6444 34.9184V29.9676H24.6044C24.9821 29.9676 25.3442 29.8176 25.6113 29.5505C25.8783 29.2835 26.0283 28.9214 26.0283 28.5437C26.0283 28.1661 25.8783 27.8039 25.6113 27.5369C25.3442 27.2699 24.9821 27.1199 24.6044 27.1199V27.1163Z" fill="#2DD89A"/>
</g>
<path d="M54.0067 13.3951C56.495 13.3951 58.6694 13.8882 60.53 14.8746C62.3906 15.8609 63.8253 17.2508 64.834 19.0441C65.8652 20.815 66.3808 22.8662 66.3808 25.1975C66.3808 27.5065 65.8652 29.5576 64.834 31.351C63.8253 33.1443 62.3794 34.5341 60.4964 35.5205C58.6358 36.5068 56.4726 37 54.0067 37H45.1633V13.3951H54.0067ZM53.6368 32.0235C55.8113 32.0235 57.5037 31.4294 58.7142 30.2413C59.9248 29.0532 60.53 27.372 60.53 25.1975C60.53 23.0231 59.9248 21.3306 58.7142 20.1201C57.5037 18.9096 55.8113 18.3043 53.6368 18.3043H50.9132V32.0235H53.6368ZM82.3717 37L77.5633 29.7706L73.3265 37H66.8032L74.3689 24.9958L66.6351 13.3951H73.3265L78.0677 20.5236L82.2372 13.3951H88.7605L81.2621 25.2984L89.0632 37H82.3717ZM99.9832 33.9065H107.885V37H96.1499V13.6304H99.9832V33.9065ZM123.499 32.2252H113.714L112.032 37H108.031L116.404 13.5968H120.842L129.215 37H125.18L123.499 32.2252ZM122.423 29.0981L118.623 18.2371L114.79 29.0981H122.423ZM143.683 24.9958C144.938 25.2199 146.003 25.8812 146.877 26.9797C147.751 28.0781 148.188 29.3222 148.188 30.7121C148.188 31.9002 147.875 32.9762 147.247 33.9401C146.642 34.8816 145.756 35.6326 144.591 36.193C143.425 36.731 142.069 37 140.522 37H131.174V13.6304H140.085C141.676 13.6304 143.044 13.8994 144.187 14.4374C145.33 14.9754 146.193 15.704 146.776 16.6231C147.359 17.5198 147.65 18.5285 147.65 19.6494C147.65 20.9944 147.292 22.1152 146.574 23.0119C145.857 23.9086 144.893 24.5699 143.683 24.9958ZM135.007 23.449H139.749C141.004 23.449 141.979 23.1688 142.674 22.6084C143.391 22.0255 143.75 21.1961 143.75 20.1201C143.75 19.0665 143.391 18.2483 142.674 17.6655C141.979 17.0602 141.004 16.7576 139.749 16.7576H135.007V23.449ZM140.186 33.8728C141.486 33.8728 142.506 33.559 143.246 32.9313C143.985 32.3037 144.355 31.4294 144.355 30.3086C144.355 29.1653 143.963 28.2574 143.178 27.5849C142.394 26.9124 141.351 26.5762 140.051 26.5762H135.007V33.8728H140.186ZM158.373 37.2354C156.804 37.2354 155.392 36.9664 154.136 36.4284C152.881 35.8679 151.895 35.0834 151.177 34.0746C150.46 33.0658 150.101 31.889 150.101 30.5439H154.203C154.293 31.5527 154.685 32.3821 155.38 33.0322C156.098 33.6823 157.095 34.0074 158.373 34.0074C159.696 34.0074 160.727 33.6935 161.467 33.0658C162.206 32.4158 162.576 31.5863 162.576 30.5776C162.576 29.793 162.341 29.1541 161.87 28.6609C161.422 28.1678 160.85 27.7867 160.155 27.5177C159.483 27.2487 158.541 26.9573 157.331 26.6434C155.806 26.2399 154.562 25.8364 153.598 25.4329C152.657 25.007 151.85 24.3569 151.177 23.4826C150.505 22.6084 150.168 21.4427 150.168 19.9856C150.168 18.6406 150.505 17.4637 151.177 16.455C151.85 15.4462 152.791 14.6728 154.002 14.1348C155.212 13.5968 156.613 13.3278 158.205 13.3278C160.469 13.3278 162.318 13.8994 163.753 15.0427C165.21 16.1635 166.017 17.7103 166.174 19.683H161.937C161.87 18.8311 161.467 18.1026 160.727 17.4973C159.987 16.8921 159.012 16.5895 157.801 16.5895C156.703 16.5895 155.806 16.8697 155.111 17.4301C154.416 17.9905 154.069 18.7975 154.069 19.8511C154.069 20.5685 154.282 21.1625 154.708 21.6333C155.156 22.0816 155.717 22.4403 156.389 22.7093C157.062 22.9783 157.981 23.2697 159.146 23.5835C160.693 24.0094 161.948 24.4354 162.912 24.8613C163.899 25.2872 164.728 25.9485 165.401 26.8452C166.096 27.7194 166.443 28.8963 166.443 30.3758C166.443 31.5639 166.118 32.6848 165.468 33.7383C164.84 34.7919 163.91 35.6438 162.677 36.2939C161.467 36.9215 160.032 37.2354 158.373 37.2354Z" fill="#212121"/>
<defs>
<clipPath id="clip0_3_54327">
<rect width="36.451" height="36.451" fill="white" transform="translate(0 5.30196)"/>
</clipPath>
</defs>
</svg>
